<svg width="20" height="20" viewBox="0 0 20 20" fill="none" xmlns="http://www.w3.org/2000/svg">
<path d="M6.68878 9.67503V9.6667M13.3554 9.67503V9.6667M6.68878 7.1667V6.33336C6.68878 5.44931 7.03997 4.60146 7.66509 3.97634C8.29021 3.35122 9.13803 3.00003 10.0221 3.00003C10.9062 3.00003 11.754 3.35122 12.3791 3.97634C13.0043 4.60146 13.3554 5.44931 13.3554 6.33336V7.1667M6.68878 7.1667H5.72234C4.85552 7.1667 4.13341 7.83113 4.06143 8.69495L3.50587 15.3616C3.4249 16.3333 4.19171 17.1667 5.16678 17.1667H14.8774C15.8525 17.1667 16.6194 16.3333 16.5384 15.3616L15.9828 8.69495C15.9108 7.83113 15.1887 7.1667 14.3219 7.1667H13.3554M6.68878 7.1667H13.3554" stroke="#222222" stroke-width="1.32143" stroke-linecap="round" stroke-linejoin="round"/>
</svg>
